<svg width="345" height="610" viewBox="0 0 345 610" fill="none" xmlns="http://www.w3.org/2000/svg">
<path d="M342.034 444.834C298.539 623.496 266.236 602.531 153.223 602.531C37.5645 602.531 20.7593 577.007 2.96564 444.834C2.96564 255.543 40.2109 1.82306 153.223 1.82306C266.236 1.82306 260.974 267.994 342.034 444.834Z" fill="#B4B4B4"/>
<path d="M345 443.01C258.997 372.822 272.837 492.234 201.662 412.93C127.921 330.766 140.372 422.045 122.579 289.871C150.258 113.031 89.9571 206.009 156.189 0C269.202 0 263.94 266.171 345 443.01Z" fill="#ACACAC"/>
<path d="M342.034 448.48C342.034 566.069 301.504 620.762 171.933 607.088C57.0238 594.963 138.322 565.157 120.529 535.076C189.799 535.076 179.987 543.28 203.639 512.288C316.652 512.288 235.272 462.153 342.034 448.48Z" fill="#A9A9A9"/>
<path d="M32.9212 287.137C-10.5745 465.799 58.3238 443.01 44.4842 474.915C35.3897 495.88 17.7937 575.184 0 443.01C0 253.72 48 -1.69544e-07 155.5 0C199.984 7.01585e-08 5.24213 19.1428 32.9212 287.137Z" fill="#BFBFBF"/>
</svg>
