<svg width="421" height="629" viewBox="0 0 421 629" fill="none" xmlns="http://www.w3.org/2000/svg">
<g filter="url(#filter0_d_1_22)">
<g filter="url(#filter1_d_1_22)">
<path d="M417 209.685C417 325.49 210.5 437.193 210.5 620.667C17.1384 407.837 4 325.49 4 209.685C4 93.879 96.4532 0 210.5 0C324.547 0 417 93.879 417 209.685Z" fill="#C77D47"/>
</g>
<circle cx="210.5" cy="205.5" r="137.5" fill="#D9D9D9"/>
<ellipse cx="211" cy="203.5" rx="91" ry="88.5" fill="black"/>
<ellipse cx="211" cy="203" rx="64" ry="62" fill="#D9D9D9"/>
<line x1="100" y1="200.5" x2="167" y2="200.5" stroke="black" stroke-width="5"/>
<line x1="253" y1="200.5" x2="320" y2="200.5" stroke="black" stroke-width="5"/>
<line x1="208.5" y1="315" x2="208.5" y2="249" stroke="black" stroke-width="5"/>
<line x1="208.5" y1="161" x2="208.5" y2="95" stroke="black" stroke-width="5"/>
</g>
<defs>
<filter id="filter0_d_1_22" x="0" y="0" width="421" height="628.667" filterUnits="userSpaceOnUse" color-interpolation-filters="sRGB">
<feFlood flood-opacity="0" result="BackgroundImageFix"/>
<feColorMatrix in="SourceAlpha" type="matrix" values="0 0 0 0 0 0 0 0 0 0 0 0 0 0 0 0 0 0 127 0" result="hardAlpha"/>
<feOffset dy="4"/>
<feGaussianBlur stdDeviation="2"/>
<feComposite in2="hardAlpha" operator="out"/>
<feColorMatrix type="matrix" values="0 0 0 0 0 0 0 0 0 0 0 0 0 0 0 0 0 0 0.25 0"/>
<feBlend mode="normal" in2="BackgroundImageFix" result="effect1_dropShadow_1_22"/>
<feBlend mode="normal" in="SourceGraphic" in2="effect1_dropShadow_1_22" result="shape"/>
</filter>
<filter id="filter1_d_1_22" x="0" y="0" width="421" height="628.667" filterUnits="userSpaceOnUse" color-interpolation-filters="sRGB">
<feFlood flood-opacity="0" result="BackgroundImageFix"/>
<feColorMatrix in="SourceAlpha" type="matrix" values="0 0 0 0 0 0 0 0 0 0 0 0 0 0 0 0 0 0 127 0" result="hardAlpha"/>
<feOffset dy="4"/>
<feGaussianBlur stdDeviation="2"/>
<feComposite in2="hardAlpha" operator="out"/>
<feColorMatrix type="matrix" values="0 0 0 0 0 0 0 0 0 0 0 0 0 0 0 0 0 0 0.25 0"/>
<feBlend mode="normal" in2="BackgroundImageFix" result="effect1_dropShadow_1_22"/>
<feBlend mode="normal" in="SourceGraphic" in2="effect1_dropShadow_1_22" result="shape"/>
</filter>
</defs>
</svg>
